<svg width="85" height="15" viewBox="0 0 85 15" fill="none" xmlns="http://www.w3.org/2000/svg">
<path d="M4.15054 5.43287C3.85869 5.43287 3.62048 5.16433 3.62048 4.83134V4.51088C3.62048 3.50832 3.21505 3.08044 2.75125 3.08044C2.02715 3.08044 1.79525 3.50832 1.79525 4.3963V10.4116C1.79525 11.2996 2.02715 11.7257 2.75125 11.7257C3.40278 11.7257 3.62048 11.2978 3.62048 10.5262V9.69732C3.62048 9.36612 3.85711 9.09579 4.15054 9.09579H5.41731V10.46C5.41731 12.1357 4.54808 13.5017 2.75283 13.5017C0.957573 13.5017 0 12.1393 0 10.4636V4.34796C0 2.67226 0.86923 1.30806 2.75125 1.30806C4.63327 1.30806 5.41573 2.78863 5.41573 4.5628V5.43466H4.14896L4.15054 5.43287Z" fill="black"/>
<path d="M6.16665 13.3388V1.47098H7.43342C7.72527 1.47098 7.96348 1.73952 7.96348 2.07251V6.30474H9.87547V2.07251C9.87547 1.74131 10.1121 1.47098 10.4055 1.47098H11.6723V13.3388H10.4055C10.1137 13.3388 9.87547 13.0702 9.87547 12.7372V8.07712H7.96348V12.7372C7.96348 13.0684 7.72684 13.3388 7.43342 13.3388H6.16665Z" fill="black"/>
<path d="M12.3096 13.3388L14.2358 1.47098H16.4665L18.3927 13.3388H17.1164C16.8514 13.3388 16.6274 13.1168 16.5927 12.8196L16.3371 10.7088H14.3668L14.1112 12.8196C14.0749 13.1168 13.8509 13.3388 13.5874 13.3388H12.3096ZM14.627 8.93287H16.0752L15.3653 3.83773H15.3369L14.627 8.93287Z" fill="black"/>
<path d="M19.183 3.24694H17.9746C17.6828 3.24694 17.4446 2.9784 17.4446 2.6454V1.47098H22.7167V2.6454C22.7167 2.97661 22.4801 3.24694 22.1867 3.24694H20.9783V13.3388H19.183V3.24694Z" fill="black"/>
<path d="M24.7723 3.24694H23.5639C23.272 3.24694 23.0338 2.9784 23.0338 2.6454V1.47098H28.306V2.6454C28.306 2.97661 28.0694 3.24694 27.7759 3.24694H26.5675V13.3388H24.7707V3.24694H24.7723Z" fill="black"/>
<path d="M28.9607 13.3388V1.47098H33.971V2.6454C33.971 2.97661 33.7343 3.24694 33.4409 3.24694H30.7543V6.30474H33.0718V7.47916C33.0718 7.81037 32.8351 8.0807 32.5417 8.0807H30.7528V11.5646H33.4393C33.7312 11.5646 33.9694 11.8331 33.9694 12.1661V13.3405H28.9591L28.9607 13.3388Z" fill="black"/>
<path d="M34.632 13.3388V1.47098H35.8987C36.1906 1.47098 36.4288 1.73952 36.4288 2.07251V11.5628H38.7241C39.016 11.5628 39.2542 11.8313 39.2542 12.1643V13.3388H34.632Z" fill="black"/>
<path d="M66.5853 1.47098V13.3388H65.5504C65.2585 13.3388 65.0203 13.0702 65.0203 12.7372V4.06868H64.9919L63.4538 12.8554C63.4049 13.1365 63.1872 13.3388 62.9348 13.3388C62.6824 13.3388 62.4647 13.1365 62.4158 12.8554L60.8793 4.06868H60.8509V12.739C60.8509 13.0702 60.6142 13.3405 60.3208 13.3405H59.2859V1.47098H61.6475L62.9222 8.40653H62.9506L64.2252 1.47098H66.5868H66.5853Z" fill="black"/>
<path d="M67.3851 4.34796C67.3851 2.67047 68.2543 1.30627 70.1363 1.30627C72.0183 1.30627 72.8876 2.67047 72.8876 4.34796V10.4618C72.8876 12.1375 72.0183 13.5035 70.1363 13.5035C68.2543 13.5035 67.3851 12.1393 67.3851 10.4618V4.34796ZM69.1803 10.4134C69.1803 11.3014 69.4122 11.7275 70.1363 11.7275C70.8604 11.7275 71.0923 11.2996 71.0923 10.4134V4.39809C71.0923 3.51011 70.8604 3.08223 70.1363 3.08223C69.4122 3.08223 69.1803 3.51011 69.1803 4.39809V10.4134Z" fill="black"/>
<path d="M73.6416 13.3388V1.47098H76.1626C78.1755 1.47098 79.2041 2.44131 79.2041 4.97277C79.2041 6.87942 78.5526 7.65282 77.9452 7.96433L79.466 13.3388H78.0383C77.8032 13.3388 77.5966 13.1633 77.5303 12.9073L76.3677 8.42443C76.1357 8.45666 75.7603 8.47277 75.4416 8.47277V12.7372C75.4416 13.0684 75.205 13.3388 74.9116 13.3388H73.6416ZM75.4385 6.79707H76.0758C77.046 6.79707 77.4088 6.3853 77.4088 4.97277C77.4088 3.56024 77.046 3.14847 76.0758 3.14847H75.4385V6.79707Z" fill="black"/>
<path d="M79.9881 1.47098H84.7965V2.6454C84.7965 2.97661 84.5599 3.24694 84.2664 3.24694H81.7834V6.30474H84.1008V7.47916C84.1008 7.81037 83.8642 8.0807 83.5707 8.0807H81.7834V11.5646H84.4699C84.7618 11.5646 85 11.8331 85 12.1661V13.3405H79.9881V1.47098Z" fill="black"/>
<path d="M49.8159 14.4058C49.4262 14.4058 49.1675 14.3717 49.095 14.361C47.1877 14.1336 45.8042 12.5278 45.8042 10.537C45.8042 8.42622 47.3186 6.70755 49.1786 6.70755H49.2038C49.2464 6.70934 50.2892 6.75589 52.6997 7.15691C52.8748 7.18556 53.042 7.20346 53.2029 7.20704C52.4504 5.0587 52.5151 3.37405 52.5324 3.08223C52.5482 1.60346 53.6131 0.405762 54.9208 0.405762C56.2286 0.405762 57.3093 1.62136 57.3093 3.11625V3.14131C57.2462 5.34515 56.7066 6.94387 55.7033 7.8963C55.5613 8.03057 55.413 8.15052 55.2569 8.25435C55.3342 8.39579 55.4146 8.53543 55.5014 8.67865C55.6244 8.88095 55.7428 9.06356 55.8548 9.23006C55.8563 9.22827 55.8579 9.22469 55.8595 9.2229C56.1419 8.79323 56.6625 8.67149 57.0632 8.95436L57.538 9.28914C57.314 9.69911 57.0805 10.0769 56.8391 10.4242C56.9212 10.5083 57.0001 10.5853 57.0758 10.6587C57.8661 11.4303 58.3126 11.9656 58.2889 13.985H58.2132C57.5554 13.9743 56.9732 13.4856 56.7824 12.7712C56.6845 12.406 56.4937 12.218 56.1482 11.8815C56.0662 11.8009 55.9778 11.715 55.8847 11.6201C53.6225 14.0674 51.0543 14.404 49.8159 14.404V14.4058ZM49.1644 8.32239C48.0948 8.33134 47.2256 9.32136 47.2256 10.5388C47.2256 11.9029 48.2746 12.6459 49.2511 12.7587L49.278 12.7623C49.4231 12.7838 52.3652 13.1848 54.8972 10.4582C54.7173 10.2093 54.528 9.92469 54.3277 9.59528C54.162 9.32315 54.0122 9.05103 53.8765 8.78428C53.449 8.84694 52.9868 8.8362 52.493 8.75563C50.3112 8.39221 49.2858 8.32955 49.1644 8.32418V8.32239ZM54.9193 2.0206C54.3861 2.0206 53.9538 2.51292 53.9538 3.11625L53.9507 3.19144C53.9507 3.20934 53.845 4.78479 54.6006 6.81855C54.6669 6.77021 54.73 6.71829 54.7899 6.66101C55.4572 6.02725 55.8374 4.79732 55.8863 3.10551C55.8816 2.50576 55.4493 2.0206 54.9208 2.0206H54.9193Z" fill="#02A7B5"/>
<path d="M41.1898 4.2495C41.1898 3.51011 41.5085 3.08223 42.0875 3.08223C42.3446 3.08223 42.6286 3.20218 42.8226 3.54771C42.922 3.72494 43.0892 3.83773 43.2754 3.83773H44.7078C44.468 2.34464 43.6224 1.30627 42.2626 1.30627C40.4957 1.30627 39.4814 2.37507 39.4814 4.26561C39.4814 7.41471 42.6081 8.18453 43.0734 10.1449C43.2533 10.9022 42.8131 11.6989 42.1238 11.7275C41.7436 11.7418 41.4312 11.5091 41.234 11.0221C41.1457 10.8055 40.9595 10.6641 40.7497 10.6641H39.3488C39.5523 12.2377 40.4799 13.5035 42.0023 13.5035C43.6824 13.5035 44.8403 12.4185 44.8403 10.4618C44.8403 7.24106 41.1898 6.27072 41.1898 4.24771V4.2495Z" fill="black"/>
</svg>
